<svg enable-background="new 0 0 100 100" height="100" viewBox="0 0 100 100" width="100" xmlns="http://www.w3.org/2000/svg"><g fill="none" stroke="#2F3B4D" stroke-width="2.25"><path d="m32.08 85.728c-4.869-7.208-7.887-17.247-7.887-28.406 0-22.124 11.862-40.061 26.493-40.061 14.634 0 26.496 17.937 26.496 40.061"/><path d="m68.409 57.322c0-16.695-8.351-30.799-18.237-30.799-9.885 0-18.234 14.104-18.234 30.799 0 8.655 2.264 16.971 6.211 22.812"/><path d="m60.151 57.322c0-11.713-5.365-20.799-9.979-20.799-4.612 0-9.977 9.085-9.977 20.799 0 6.293 1.624 12.454 4.345 16.48"/><path d="m50.173 48.417c-.858 1.917-1.719 4.946-1.719 8.906 0 3.937.973 7.92 2.479 10.148"/><path d="m38.148 80.135c-3.947-5.842-6.211-14.157-6.211-22.812 0-16.695 8.35-30.799 18.234-30.799 9.887 0 18.237 14.104 18.237 30.799"/><path d="m24.983 91.321c-6.168-9.128-9.563-21.203-9.563-33.999 0-12.673 3.333-24.692 9.386-33.844 6.506-9.836 15.751-15.478 25.366-15.478 9.617 0 18.863 5.641 25.368 15.478 6.053 9.151 9.387 21.171 9.387 33.844"/></g></svg>