<svg enable-background="new 0 0 100 100" height="100" viewBox="0 0 100 100" width="100" xmlns="http://www.w3.org/2000/svg"><path d="m74.738 15.639c5.5 0 10 4.5 10 10v50c0 5.5-4.5 10-10 10h-50c-5.5 0-10-4.5-10-10v-50c0-5.5 4.5-10 10-10zm0-2.25h-50c-6.755 0-12.25 5.495-12.25 12.25v50c0 6.756 5.495 12.25 12.25 12.25h50c6.756 0 12.25-5.494 12.25-12.25v-50c0-6.755-5.494-12.25-12.25-12.25z" fill="#2f3b4d"/><path d="m45.058 45.639h49.682v50h-49.682z" fill="#fff"/><g fill="none" stroke="#2f3b4d" stroke-miterlimit="10" stroke-width="2.25"><path d="m14.922 25.639h70"/><path d="m34.739 5.669v14.97"/><path d="m64.677 5.669v14.97"/></g><path d="m79.171 58.607c-1.853-1.153-3.601-1.607-5.347-2.762-1.083-.734-2.586-2.48-3.846-3.984-.244 2.412-.979 3.391-1.816 4.09-1.782 1.398-2.9 1.816-4.438 2.656-1.293.664-8.317 4.857-8.317 13.875 0 9.017 7.584 15.656 16.007 15.656 8.422 0 15.727-6.115 15.727-15.377 0-9.26-6.851-13.454-7.97-14.154zm.202 26.243c-.175.176-1.782 1.293-3.669 1.469-1.888.175-4.438.279-5.978-1.118-.244-.245-.175-.595 0-.734.176-.14.314-.245.524-.245.209 0 .175 0 .278.07.699.559 1.748 1.014 3.984 1.014s3.811-.63 4.508-1.154c.314-.244.455-.034.49.104.038.14.108.349-.137.594zm-6.116-3.181c.386-.351 1.015-.909 1.608-1.153s.908-.209 1.468-.209 1.153.034 1.571.313c.421.28.664.909.805 1.258s0 .56-.279.699c-.244.14-.279.069-.523-.384-.244-.454-.454-.909-1.678-.909s-1.607.419-2.201.909c-.596.488-.805.664-1.014.384-.211-.279-.141-.557.243-.908zm9.263.28c-1.258-.104-3.774-4.02-5.383-4.09-2.027-.069-6.431 4.229-9.891 4.229-2.098 0-2.727-.315-3.426-.769-1.049-.734-1.572-1.853-1.537-3.391.035-2.726 2.586-5.277 5.802-5.312 4.089-.035 6.92 4.054 8.981 4.019 1.748-.035 5.103-3.46 6.744-3.46 1.748 0 2.237 1.817 2.237 2.901s-.35 3.041-1.188 4.264c-.838 1.224-1.362 1.68-2.339 1.609z" fill="#2f3b4d"/></svg>