<svg enable-background="new 0 0 100 100" height="100" viewBox="0 0 100 100" width="100" xmlns="http://www.w3.org/2000/svg"><path d="m74.739 15.639c5.5 0 10 4.5 10 10v50c0 5.5-4.5 10-10 10h-50c-5.5 0-10-4.5-10-10v-50c0-5.5 4.5-10 10-10zm0-2.25h-50c-6.755 0-12.25 5.495-12.25 12.25v50c0 6.755 5.495 12.25 12.25 12.25h50c6.755 0 12.25-5.495 12.25-12.25v-50c0-6.755-5.495-12.25-12.25-12.25z"/><path d="m45.058 45.639h49.682v50h-49.682z" fill="#fff"/><g fill="none" stroke="#2F3B4D" stroke-miterlimit="10" stroke-width="2.25"><path d="m14.922 25.639h70"/><path d="m34.739 5.669v14.97"/><path d="m64.677 5.669v14.97"/></g><path d="m79.171 58.607c-1.852-1.153-3.6-1.607-5.347-2.761-1.083-.734-2.586-2.481-3.845-3.984-.244 2.412-.979 3.39-1.817 4.089-1.782 1.398-2.9 1.817-4.438 2.656-1.293.664-8.317 4.858-8.317 13.875s7.584 15.657 16.007 15.657c8.422 0 15.727-6.116 15.727-15.377s-6.851-13.456-7.97-14.155zm.202 26.243c-.175.175-1.782 1.293-3.669 1.468-1.888.175-4.439.28-5.977-1.118-.245-.245-.175-.594 0-.734s.314-.245.524-.245c.209 0 .175 0 .279.07.699.559 1.747 1.013 3.984 1.013 2.236 0 3.81-.629 4.508-1.153.314-.245.455-.035.489.104.037.141.107.35-.138.595zm-6.116-3.181c.385-.35 1.014-.909 1.608-1.154.594-.244.908-.209 1.468-.209.559 0 1.153.035 1.572.314.42.28.664.909.804 1.258s0 .559-.279.699c-.245.14-.279.07-.524-.384-.244-.454-.454-.909-1.678-.909-1.223 0-1.607.419-2.201.909-.595.489-.804.664-1.014.384-.21-.279-.14-.558.244-.908zm9.262.28c-1.258-.104-3.774-4.019-5.382-4.089-2.027-.07-6.431 4.229-9.891 4.229-2.097 0-2.726-.315-3.425-.769-1.049-.734-1.573-1.852-1.538-3.39.035-2.726 2.586-5.277 5.802-5.312 4.089-.035 6.92 4.054 8.981 4.019 1.748-.035 5.103-3.46 6.745-3.46 1.748 0 2.237 1.817 2.237 2.901s-.35 3.041-1.188 4.264-1.363 1.677-2.341 1.607z"/></svg>