<?xml version="1.0" encoding="utf-8"?>
<!-- Generator: Adobe Illustrator 16.0.0, SVG Export Plug-In . SVG Version: 6.00 Build 0)  -->
<!DOCTYPE svg PUBLIC "-//W3C//DTD SVG 1.1//EN" "http://www.w3.org/Graphics/SVG/1.1/DTD/svg11.dtd">
<svg version="1.1" id="Layer_1" xmlns="http://www.w3.org/2000/svg" xmlns:xlink="http://www.w3.org/1999/xlink" x="0px" y="0px"
	 width="100px" height="100px" viewBox="0 0 100 100" enable-background="new 0 0 100 100" xml:space="preserve">
<path fill="#2F3B4D" d="M25,85c-5.5,0-10-4.5-10-10V25c0-5.5,4.5-10,10-10h50c5.5,0,10,4.5,10,10v20h2.25V25
	c0-6.755-5.495-12.25-12.25-12.25H25c-6.755,0-12.25,5.495-12.25,12.25v50c0,6.755,5.495,12.25,12.25,12.25h20.318V85H25z"/>
<g>
	<path fill="none" stroke="#2F3B4D" stroke-width="2.25" stroke-miterlimit="10" d="M15.183,25h70"/>
	<path fill="none" stroke="#2F3B4D" stroke-width="2.25" stroke-miterlimit="10" d="M35,5.03V20"/>
	<path fill="none" stroke="#2F3B4D" stroke-width="2.25" stroke-miterlimit="10" d="M64.938,5.03V20"/>
	<path fill="none" stroke="#2F3B4D" stroke-width="2.25" stroke-miterlimit="10" d="M79.125,62.675V87.45"/>
	<path fill="none" stroke="#2F3B4D" stroke-width="2.25" stroke-miterlimit="10" d="M91.512,75.062H66.738"/>
</g>
<path fill="none" stroke="#2F3B4D" stroke-width="2.25" d="M47.305,40.671c-1.786,0.163-3.024,0.45-3.715,0.857
	c-0.692,0.409-1.038,1.035-1.038,1.878c0,0.463,0.151,1.448,0.453,2.959c0.301,1.511,0.451,2.878,0.451,4.102
	c0,1.361-0.451,2.504-1.355,3.428c-0.904,0.926-2.082,1.443-3.532,1.551v0.41c1.45,0.108,2.627,0.64,3.532,1.593
	c0.904,0.95,1.355,2.108,1.355,3.47c0,1.198-0.15,2.518-0.451,3.959c-0.301,1.439-0.453,2.421-0.453,2.938
	c0,0.898,0.352,1.564,1.055,2c0.703,0.437,1.936,0.723,3.699,0.857"/>
<path fill="none" stroke="#2F3B4D" stroke-width="2.25" d="M52.629,70.671c1.786-0.163,3.023-0.45,3.715-0.856
	c0.692-0.41,1.038-1.035,1.038-1.879c0-0.463-0.151-1.446-0.452-2.959c-0.302-1.511-0.451-2.877-0.451-4.102
	c0-1.361,0.451-2.503,1.354-3.428c0.903-0.926,2.082-1.443,3.532-1.551v-0.41c-1.45-0.108-2.627-0.639-3.532-1.592
	c-0.903-0.951-1.354-2.109-1.354-3.471c0-1.198,0.149-2.517,0.451-3.959c0.301-1.441,0.452-2.421,0.452-2.939
	c0-0.898-0.353-1.564-1.055-2c-0.703-0.435-1.937-0.721-3.699-0.857"/>
</svg>
