<svg enable-background="new 0 0 100 100" height="100" viewBox="0 0 100 100" width="100" xmlns="http://www.w3.org/2000/svg"><path d="m75.542 14.985h-50c-5.5 0-10 4.5-10 10v50c0 5.5 4.5 10 10 10h20.318v-40h39.682v-20c0-5.5-4.5-10-10-10z" fill="none"/><path d="m25.542 84.984c-5.5 0-10-4.5-10-10v-50c0-5.5 4.5-10 10-10h50c5.5 0 10 4.5 10 10v20h2.25v-20c0-6.755-5.495-12.25-12.25-12.25h-50c-6.755 0-12.25 5.495-12.25 12.25v50c0 6.756 5.495 12.25 12.25 12.25h20.318v-2.25z" fill="#2f3b4d"/><g fill="none" stroke="#2f3b4d" stroke-miterlimit="10" stroke-width="2.25"><path d="m15.725 24.985h70m-50.183-19.97v14.97m29.937-14.97v14.97m-19.458 21.171-12.571 14.819 12.571 14.515m8.536-.001 12.571-14.818-12.571-14.515"/><path d="m89.875 75.25h-19.174m14.549-6.75 4.625 7-5.25 6.5"/></g></svg>