<svg xmlns="http://www.w3.org/2000/svg" width="100" height="100" viewBox="0 0 100 100"><path d="M75.542 14.985c5.5 0 10 4.5 10 10v50c0 5.5-4.5 10-10 10h-50c-5.5 0-10-4.5-10-10v-50c0-5.5 4.5-10 10-10h50m0-2.25h-50c-6.755 0-12.25 5.495-12.25 12.25v50c0 6.755 5.495 12.25 12.25 12.25h50c6.755 0 12.25-5.495 12.25-12.25v-50c0-6.755-5.495-12.25-12.25-12.25z"/><path fill="#fff" d="M45.86 44.985h49.682v50h-49.682z"/><path stroke="#2F3B4D" stroke-width="2.25" stroke-miterlimit="10" fill="none" d="M15.725 24.985h70M35.542 5.015v14.97M65.479 5.015v14.97M46.021 41.156l-12.571 14.818 12.571 14.515M54.557 70.489l12.571-14.818-12.571-14.515"/><path stroke="#2F3B4D" stroke-width="4.5" stroke-miterlimit="10" fill="none" d="M89.875 75.25h-19.174M85.25 68.5l4.625 7-5.25 6.5"/></svg>
