<svg enable-background="new 0 0 100 100" height="100" viewBox="0 0 100 100" width="100" xmlns="http://www.w3.org/2000/svg"><path d="m65.393 25h-34.984c-8.51 0-15.409 6.899-15.409 15.409 0 8.511 6.899 14.409 15.409 14.409l34.182.412c8.511-.001 16.409 6.898 16.409 15.409 0 8.512-6.898 14.41-15.409 14.41h-31.591" fill="none" stroke="#2f3b4d" stroke-miterlimit="10" stroke-width="2.25"/><path d="m27.358 77.361c3.24.97 5.608 3.979 5.608 7.529s-2.368 6.562-5.608 7.531zm-2.25-2.578v20.217c5.583 0 10.108-4.525 10.108-10.109.001-5.582-4.525-10.108-10.108-10.108z" fill="#2f3b4d"/><path d="m73.341 17.687v15.905c-3.467-.982-6.014-4.176-6.014-7.953s2.547-6.97 6.014-7.952m2.25-2.561c-5.807 0-10.514 4.707-10.514 10.513 0 5.807 4.707 10.514 10.514 10.514z" fill="#2f3b4d"/><g fill="none" stroke="#2f3b4d" stroke-miterlimit="10" stroke-width="2.25"><path d="m74.75 21h4.875"/><path d="m74.75 31h4.875"/><path d="m20.233 79.146h4.875"/><path d="m20.233 89.146h4.875"/></g></svg>