<svg enable-background="new 0 0 100 100" height="100" viewBox="0 0 100 100" width="100" xmlns="http://www.w3.org/2000/svg"><path d="m75 15c5.5 0 10 4.5 10 10v50c0 5.5-4.5 10-10 10h-50c-5.5 0-10-4.5-10-10v-50c0-5.5 4.5-10 10-10zm0-2.25h-50c-6.755 0-12.25 5.495-12.25 12.25v50c0 6.755 5.495 12.25 12.25 12.25h50c6.755 0 12.25-5.495 12.25-12.25v-50c0-6.755-5.495-12.25-12.25-12.25z" fill="#2f3b4d"/><g fill="none" stroke="#2f3b4d" stroke-width="2.25"><path d="m48.866 40.671c-1.786.163-3.024.45-3.715.857-.692.409-1.038 1.035-1.038 1.878 0 .463.151 1.448.453 2.959.301 1.511.451 2.878.451 4.102 0 1.361-.451 2.504-1.355 3.428-.904.926-2.082 1.443-3.532 1.551v.41c1.45.108 2.627.639 3.532 1.592.904.951 1.355 2.109 1.355 3.47 0 1.198-.15 2.517-.451 3.959-.301 1.44-.453 2.421-.453 2.938 0 .898.352 1.564 1.055 2s1.936.722 3.699.857"/><path d="m15.183 25h70" stroke-miterlimit="10"/><path d="m35 5.03v14.97" stroke-miterlimit="10"/><path d="m64.938 5.03v14.97" stroke-miterlimit="10"/><path d="m52.629 70.671c1.786-.163 3.023-.45 3.715-.856.692-.41 1.038-1.035 1.038-1.879 0-.463-.151-1.447-.452-2.959-.302-1.511-.451-2.877-.451-4.102 0-1.361.451-2.503 1.354-3.428.903-.926 2.082-1.443 3.532-1.551v-.41c-1.45-.108-2.627-.639-3.532-1.592-.903-.951-1.354-2.109-1.354-3.47 0-1.198.149-2.517.451-3.959.301-1.441.452-2.421.452-2.939 0-.898-.353-1.564-1.055-2-.703-.435-1.937-.721-3.699-.857"/></g></svg>