<svg enable-background="new 0 0 100 100" height="100" viewBox="0 0 100 100" width="100" xmlns="http://www.w3.org/2000/svg"><g fill="none" stroke="#2F3B4D" stroke-miterlimit="10" stroke-width="2.25"><path d="m15 65 35-15"/><path d="m50 50 35-34"/><path d="m50 50 25 25"/></g><path d="m85 23.875c-4.894 0-8.875-3.981-8.875-8.875s3.981-8.875 8.875-8.875 8.875 3.981 8.875 8.875-3.981 8.875-8.875 8.875z" fill="#fff"/><path d="m85 7.25c4.273 0 7.75 3.477 7.75 7.75s-3.477 7.75-7.75 7.75-7.75-3.477-7.75-7.75 3.477-7.75 7.75-7.75m0-2.25c-5.523 0-10 4.476-10 10s4.477 10 10 10 10-4.477 10-10c0-5.524-4.477-10-10-10z"/><path d="m75 83.875c-4.894 0-8.875-3.981-8.875-8.875s3.981-8.875 8.875-8.875 8.875 3.981 8.875 8.875-3.981 8.875-8.875 8.875z" fill="#fff"/><path d="m75 67.25c4.273 0 7.75 3.477 7.75 7.75s-3.477 7.75-7.75 7.75-7.75-3.477-7.75-7.75 3.477-7.75 7.75-7.75m0-2.25c-5.523 0-10 4.476-10 10s4.477 10 10 10 10-4.477 10-10c0-5.524-4.477-10-10-10z"/><path d="m15 73.875c-4.894 0-8.875-3.981-8.875-8.875s3.981-8.875 8.875-8.875 8.875 3.981 8.875 8.875-3.981 8.875-8.875 8.875z" fill="#fff"/><path d="m15 57.25c4.273 0 7.75 3.477 7.75 7.75s-3.477 7.75-7.75 7.75-7.75-3.477-7.75-7.75 3.477-7.75 7.75-7.75m0-2.25c-5.523 0-10 4.476-10 10s4.477 10 10 10 10-4.477 10-10c0-5.524-4.477-10-10-10z"/><path d="m50 63.875c-7.651 0-13.875-6.224-13.875-13.875s6.224-13.875 13.875-13.875 13.875 6.224 13.875 13.875-6.224 13.875-13.875 13.875z" fill="#fff"/><path d="m50 37.25c7.031 0 12.75 5.72 12.75 12.75s-5.719 12.75-12.75 12.75c-7.03 0-12.75-5.72-12.75-12.75s5.72-12.75 12.75-12.75m0-2.25c-8.284 0-15 6.716-15 15 0 8.285 6.716 15 15 15 8.285 0 15-6.715 15-15 0-8.284-6.715-15-15-15z"/></svg>
