<svg enable-background="new 0 0 100 100" height="100" viewBox="0 0 100 100" width="100" xmlns="http://www.w3.org/2000/svg"><path d="m75 15c5.5 0 10 4.5 10 10v50c0 5.5-4.5 10-10 10h-50c-5.5 0-10-4.5-10-10v-50c0-5.5 4.5-10 10-10zm0-2.25h-50c-6.755 0-12.25 5.495-12.25 12.25v50c0 6.755 5.495 12.25 12.25 12.25h50c6.755 0 12.25-5.495 12.25-12.25v-50c0-6.755-5.495-12.25-12.25-12.25z" fill="#2f3b4d"/><path d="m45.318 45h49.682v50h-49.682z" fill="#fff"/><g fill="none" stroke="#2f3b4d" stroke-miterlimit="10" stroke-width="2.25"><path d="m15.183 25h70"/><path d="m35 5.03v14.97"/><path d="m64.938 5.03v14.97"/><path d="m55.432 95 17.281-17.482"/></g><path d="m81.49 58.068c5.98 0 10.847 4.867 10.847 10.847 0 5.981-4.866 10.847-10.847 10.847s-10.848-4.865-10.848-10.847c.001-5.979 4.867-10.847 10.848-10.847m0-2.25c-7.233 0-13.098 5.865-13.098 13.097 0 7.233 5.864 13.097 13.098 13.097 7.232 0 13.097-5.863 13.097-13.097-.001-7.231-5.864-13.097-13.097-13.097z" fill="#2f3b4d"/><path d="m45.479 41.171-12.571 14.818 12.571 14.515" fill="none" stroke="#2f3b4d" stroke-miterlimit="10" stroke-width="2.25"/><path d="m54.016 70.504 12.57-14.816-12.57-14.517" fill="none" stroke="#2f3b4d" stroke-miterlimit="10" stroke-width="2.25"/></svg>