<svg enable-background="new 0 0 100 100" height="100" viewBox="0 0 100 100" width="100" xmlns="http://www.w3.org/2000/svg"><path d="m75 15c5.5 0 10 4.5 10 10v50c0 5.5-4.5 10-10 10h-50c-5.5 0-10-4.5-10-10v-50c0-5.5 4.5-10 10-10zm0-2.25h-50c-6.755 0-12.25 5.495-12.25 12.25v50c0 6.755 5.495 12.25 12.25 12.25h50c6.755 0 12.25-5.495 12.25-12.25v-50c0-6.755-5.495-12.25-12.25-12.25z"/><path d="m45.318 45h49.682v50h-49.682z" fill="#fff"/><g fill="none" stroke="#2F3B4D" stroke-width="2.25"><path d="m47.305 40.671c-1.786.163-3.024.45-3.715.857-.692.409-1.038 1.035-1.038 1.878 0 .463.151 1.448.453 2.959.301 1.511.451 2.878.451 4.102 0 1.361-.451 2.503-1.355 3.428s-2.082 1.443-3.532 1.551v.409c1.45.109 2.627.639 3.532 1.592.904.952 1.355 2.11 1.355 3.47 0 1.198-.15 2.517-.451 3.959-.301 1.441-.453 2.421-.453 2.939 0 .898.352 1.564 1.055 2 .703.435 1.936.721 3.699.857"/><path d="m15.183 25h70" stroke-miterlimit="10"/><path d="m35 5.03v14.97" stroke-miterlimit="10"/><path d="m64.938 5.03v14.97" stroke-miterlimit="10"/><path d="m52.629 70.671c1.786-.163 3.024-.45 3.715-.857.692-.409 1.038-1.035 1.038-1.878 0-.463-.151-1.448-.453-2.959-.301-1.511-.451-2.878-.451-4.102 0-1.361.451-2.503 1.355-3.428s2.082-1.443 3.532-1.551v-.409c-1.45-.109-2.627-.639-3.532-1.592-.904-.952-1.355-2.11-1.355-3.47 0-1.198.15-2.517.451-3.959.301-1.441.453-2.421.453-2.939 0-.898-.352-1.564-1.055-2-.703-.435-1.936-.721-3.699-.857"/><path d="m55.431 95 17.282-17.483" stroke-miterlimit="10"/></g><path d="m81.49 58.069c5.981 0 10.847 4.866 10.847 10.846 0 5.981-4.866 10.847-10.847 10.847s-10.847-4.866-10.847-10.847c0-5.98 4.866-10.846 10.847-10.846m0-2.25c-7.233 0-13.097 5.864-13.097 13.096 0 7.233 5.864 13.097 13.097 13.097s13.097-5.864 13.097-13.097c-.001-7.232-5.864-13.096-13.097-13.096z"/></svg>
