<svg enable-background="new 0 0 100 100" height="100" viewBox="0 0 100 100" width="100" xmlns="http://www.w3.org/2000/svg"><path d="m55.277 32.678c-.174.673-.861 1.078-1.535.904-.674-.172-1.081-.86-.906-1.535s.862-1.08 1.538-.905c.672.174 1.077.862.903 1.536" fill="#1a171c"/><path d="m59.231 33.699c-.175.674-.862 1.08-1.536.905-.674-.174-1.08-.862-.905-1.537.174-.674.862-1.079 1.536-.905.674.175 1.079.862.905 1.537" fill="#1a171c"/><path d="m42.761 23.25c.173.674-.232 1.362-.905 1.535-.674.176-1.362-.229-1.536-.903s.231-1.362.905-1.537 1.362.231 1.536.905" fill="#1a171c"/><path d="m46.715 22.228c.174.674-.231 1.362-.905 1.537-.674.174-1.361-.231-1.536-.905-.174-.674.231-1.362.906-1.536.673-.174 1.361.229 1.535.904" fill="#1a171c"/><g fill="none" stroke="#1a171c" stroke-linejoin="round" stroke-width="2.25"><path d="m33.355 19.503c.037.193.078.385.127.576l2.031 7.862c1.248 4.826 6.172 7.726 10.996 6.481 4.826-1.248 7.729-6.169 6.482-10.997l-2.031-7.862c-.05-.191-.107-.379-.168-.564-2.626 1.05-5.515 1.999-8.58 2.792-3.065.792-6.05 1.359-8.857 1.712z"/><path d="m46.516 36.86c.517 3.48 3.054 6.483 6.673 7.418 4.825 1.247 9.749-1.654 10.996-6.481l2.031-7.862c.05-.191.091-.382.127-.574-2.807-.355-5.793-.922-8.858-1.714-.577-.15-1.147-.304-1.709-.464"/><path d="m51.522 38.578c1.104-1.128 2.763-1.65 4.4-1.228 1.717.445 2.951 1.809 3.31 3.43"/><path d="m48.655 26.702c-.419 1.522-1.618 2.783-3.256 3.205-1.717.443-3.458-.152-4.557-1.395"/><path d="m20.658 47.536-.195 5.176"/><path d="m11.705 51.49 3.929 3.924"/><path d="m7.758 60.445 5.175-.2"/><circle cx="23.545" cy="66.458" r="2.67"/><path d="m15.291 69.987 4.672 4.67"/><path d="m26.217 61.151 15.684-15.686"/><path d="m28.852 63.786 15.686-15.685"/><path d="m28.99 58.379c-2.882-1.751-6.691-1.381-9.182 1.11-1.485 1.487-2.216 3.442-2.191 5.392-3.008-.607-6.253.251-8.585 2.584-3.699 3.701-3.701 9.698 0 13.397 3.7 3.699 9.698 3.699 13.397 0 2.331-2.332 3.192-5.577 2.584-8.584 1.949.024 3.905-.704 5.391-2.191 2.286-2.286 2.787-5.676 1.504-8.446"/><path d="m66.844 63.225h3.035"/><path d="m85.554 76.791h3.924v4.375"/><path d="m59.618 76.791h3.924v4.375"/><path d="m67.003 72.012 5.156-5.154h15.327l7.004 7.003v11.003"/><path d="m72.43 77.722-12.035-12.035-11.812 11.813"/><path d="m69.054 84.864v-10.829"/><path d="m51.339 85.864v-8.645"/><path d="m63.677 59.594 4.684-13.739 4.684 13.739z"/><path d="m64.425 59.594v10.351"/><path d="m72.265 59.594v7.264"/></g></svg>
