<svg enable-background="new 0 0 100 100" height="100" viewBox="0 0 100 100" width="100" xmlns="http://www.w3.org/2000/svg"><path d="m62.25 7.25c.406 0 .75.343.75.75v44.15c0 .406-.344.75-.75.75h-23.5c-.406 0-.75-.344-.75-.75v-44.15c0-.407.344-.75.75-.75zm0-2.25h-23.5c-1.65 0-3 1.35-3 3v44.15c0 1.649 1.35 3 3 3h23.5c1.65 0 3-1.351 3-3v-44.15c0-1.65-1.35-3-3-3z" fill="#2f3b4d"/><g fill="#fff" stroke="#2f3b4d" stroke-width="2.25"><path d="m61.168 67.544c-4.438-5.886-8.582-26.544-16.381-22.928-9.197 4.264 2.815 31.065 3.954 34.522 4.942 14.995 22.667 11.283 30.03 1.014 5.211-7.268 1.068-17.282-1.078-25.082-1.489-5.413-6.053-7.219-10.559-10.462"/><path d="m39 57.928-7.5 6.572c-5.125 1.713-8-3.518-4.25-7.75 1.251-1.412 5.75-4.889 5.75-4.889"/><path d="m40.816 67.779-7.5 6.572c-5.125 1.713-8-3.519-4.25-7.75 1.251-1.412 5.75-4.889 5.75-4.889"/><path d="m43.729 76.58-5.5 4.572c-5.125 1.713-8-3.519-4.25-7.75 1.251-1.412 5.75-4.889 5.75-4.889"/></g></svg>