<svg enable-background="new 0 0 100 100" height="100" viewBox="0 0 100 100" width="100" xmlns="http://www.w3.org/2000/svg"><path d="m54.318 82.673c-.18 0-.352-.054-.498-.155l-37.133-26.002c-.396-.277-.492-.824-.215-1.219l15.124-21.599c.163-.232.433-.371.722-.371.179 0 .351.054.497.156l37.135 26.003c.396.277.491.822.215 1.218l-15.125 21.598c-.163.232-.433.371-.722.371z" fill="#fff"/><path d="m32.373 34.548 36.725 25.716-14.836 21.188-36.725-25.716zm-.057-2.346c-.632 0-1.255.297-1.643.851l-15.123 21.597c-.631.901-.41 2.154.491 2.785l37.135 26.002c.348.244.747.359 1.143.359.632 0 1.255-.297 1.643-.852l15.122-21.594c.631-.9.41-2.154-.491-2.785l-37.135-26.003c-.347-.244-.746-.36-1.142-.36z" fill="#2f3b4d"/><path d="m48.183 72.684c-.343 0-.656-.197-.799-.504l-19.158-41.086c-.098-.209-.107-.447-.027-.668s.24-.397.45-.495l23.896-11.143c.115-.054.238-.081.364-.081.343 0 .655.198.799.504l19.159 41.086c.203.438.014.958-.424 1.163l-23.897 11.144c-.114.053-.237.08-.363.08z" fill="#fff"/><path d="m52.793 19.914 18.948 40.632-23.443 10.933-18.947-40.634zm.115-2.332c-.282 0-.568.06-.84.187l-23.895 11.143c-.997.465-1.432 1.661-.967 2.658l19.158 41.086c.338.726 1.064 1.154 1.819 1.154.282 0 .568-.061.839-.188l23.896-11.142c.997-.465 1.432-1.662.967-2.658l-19.158-41.086c-.338-.726-1.064-1.154-1.819-1.154z" fill="#2f3b4d"/><path d="m56.921 61.238c-.481 0-.875-.393-.875-.875v-45.333c0-.482.394-.875.875-.875h26.366c.482 0 .875.393.875.875v45.333c0 .482-.393.875-.875.875z" fill="#fff"/><path d="m83.037 15.28v44.833h-25.866v-44.833zm.25-2.25h-26.366c-1.101 0-2 .9-2 2v45.333c0 1.1.899 2 2 2h26.366c1.1 0 2-.9 2-2v-45.333c0-1.1-.9-2-2-2z" fill="#2f3b4d"/></svg>