<svg enable-background="new 0 0 100 100" height="100" viewBox="0 0 100 100" width="100" xmlns="http://www.w3.org/2000/svg"><path d="m46.072 64.797 5.799 5.799-3.66 3.658-5.798-5.798zm0-2.766c-.256 0-.513.097-.707.292l-5.427 5.428c-.389.39-.389 1.024 0 1.414l7.565 7.565c.194.194.451.293.707.293s.513-.098.707-.293l5.429-5.426c.389-.39.389-1.025 0-1.414l-7.567-7.566c-.194-.196-.451-.293-.707-.293z" fill="#2f3b4d"/><path d="m47.896 67.625h13.458v10.605h-13.458z" fill="#fff"/><path d="m79.417 7.25c1.769 0 3.208 1.583 3.208 3.53v78.47c0 1.93-1.439 3.5-3.208 3.5h-58.959c-1.769 0-3.208-1.57-3.208-3.5v-78.47c0-1.947 1.439-3.53 3.208-3.53zm0-2.25h-58.959c-3.015 0-5.458 2.605-5.458 5.78v78.47c0 3.175 2.443 5.75 5.458 5.75h58.959c3.015 0 5.458-2.575 5.458-5.75v-78.47c0-3.175-2.443-5.78-5.458-5.78z"/><path d="m79.417 7.25c1.769 0 3.208 1.583 3.208 3.53v78.47c0 1.93-1.439 3.5-3.208 3.5h-58.959c-1.769 0-3.208-1.57-3.208-3.5v-78.47c0-1.947 1.439-3.53 3.208-3.53zm0-2.25h-58.959c-3.015 0-5.458 2.605-5.458 5.78v78.47c0 3.175 2.443 5.75 5.458 5.75h58.959c3.015 0 5.458-2.575 5.458-5.75v-78.47c0-3.175-2.443-5.78-5.458-5.78z" fill="#2f3b4d"/><path d="m72.625 27v15.75h-45.377v-15.75zm2.25-2.25h-49.877v20.25h49.877z" fill="#2f3b4d"/><path d="m62.75 57.25v25.5h-25.375v-25.5zm2.25-2.25h-29.875v30h29.875z" fill="#2f3b4d"/><g fill="none" stroke="#2f3b4d" stroke-width="2.25"><path d="m60.812 69.316h-8.75"/><path d="m49.531 72.219h11.281"/><path d="m52.128 74.95-1.756 1.669"/><path d="m60.77 74.95-4.332 4.207"/><path d="m56.438 74.95-3.906 3.763"/></g></svg>