<svg enable-background="new 0 0 100 100" height="100" viewBox="0 0 100 100" width="100" xmlns="http://www.w3.org/2000/svg"><path d="m75 15c5.5 0 10 4.5 10 10v50c0 5.5-4.5 10-10 10h-50c-5.5 0-10-4.5-10-10v-50c0-5.5 4.5-10 10-10zm0-2.25h-50c-6.755 0-12.25 5.495-12.25 12.25v50c0 6.755 5.495 12.25 12.25 12.25h50c6.755 0 12.25-5.495 12.25-12.25v-50c0-6.755-5.495-12.25-12.25-12.25z"/><g fill="none" stroke="#2F3B4D" stroke-miterlimit="10" stroke-width="2.25"><path d="m15.183 25h70"/><path d="m35 5.03v14.97"/><path d="m64.938 5.03v14.97"/><path d="m45.479 41.171-12.571 14.818 12.571 14.515"/><path d="m54.015 70.504 12.571-14.817-12.571-14.516"/></g></svg>